<svg xmlns="http://www.w3.org/2000/svg" width="24" height="12" fill="#3090cf" viewBox="0 0 24 12"><g clip-path="url(#clip0_11_165)"><path d="M10.8 0c7.96 0 13.024 2.827 13.195 7.05l.005.223c0 .723-.38 1.417-1.054 1.928-.676.512-1.591.799-2.546.799H1.2c-.318 0-.623-.096-.849-.266S0 9.332 0 9.09V.909C0 .668.126.437.351.266.577.096.881 0 1.2 0zM6 1.818H2.4v2.727H6zm4.8 0H8.4v2.727H12V1.842q-.6-.024-1.2-.024m3.601.234L14.4 4.545h6.048c-1.175-1.215-3.227-2.096-6.047-2.493"/><path d="M11 10a2 2 0 1 1-4 0zm7 0a2 2 0 1 1-4 0zM6 10a2 2 0 0 1-4 0z"/></g><defs><clipPath id="clip0_11_165"><path d="M0 0h24v12H0z"/></clipPath></defs></svg>